<?xml version="1.0" encoding="utf-8"?>
<!-- Generator: Adobe Illustrator 25.0.1, SVG Export Plug-In . SVG Version: 6.00 Build 0)  -->
<svg version="1.1" id="レイヤー_1" xmlns="http://www.w3.org/2000/svg" xmlns:xlink="http://www.w3.org/1999/xlink" x="0px"
	 y="0px" viewBox="0 0 352 191" style="enable-background:new 0 0 352 191;" xml:space="preserve">
<style type="text/css">
	.st0{fill:#1F5290;}
	.st1{enable-background:new    ;}
	.st2{fill:#FFFCFB;}
</style>
<g id="レイヤー_1_1_">
	<rect class="st0" width="352" height="191"/>
</g>
<g id="レイヤー_2_1_">
	<g class="st1">
		<path class="st2" d="M17.99,3.21l11.57,38.5h0.14l10.95-38.5h15.32v55.99H45.78V19.53h-0.14L33.52,59.21h-8.39L13,19.92h-0.14
			v39.29H2.68V3.21H17.99z"/>
		<path class="st2" d="M102.54,3.21v10.35H76.42v12h23.98v9.57H76.42v13.72h26.68v10.35H65.53V3.21H102.54z"/>
		<path class="st2" d="M131.79,3.21c3.19,0,6.16,0.58,8.91,1.73c2.75,1.15,5.13,2.88,7.14,5.18c2.01,2.3,3.58,5.18,4.71,8.63
			c1.13,3.45,1.7,7.5,1.7,12.16c0,4.08-0.46,7.84-1.39,11.29c-0.92,3.45-2.32,6.43-4.19,8.94c-1.87,2.51-4.2,4.48-7,5.92
			c-2.8,1.44-6.09,2.16-9.88,2.16h-21.34V3.21H131.79z M131.02,48.85c1.57,0,3.09-0.29,4.57-0.86c1.48-0.57,2.79-1.53,3.95-2.86
			c1.15-1.33,2.08-3.07,2.77-5.21c0.69-2.14,1.04-4.76,1.04-7.84c0-2.82-0.24-5.37-0.73-7.65c-0.48-2.27-1.28-4.22-2.39-5.84
			c-1.11-1.62-2.58-2.86-4.4-3.73c-1.83-0.86-4.08-1.29-6.76-1.29h-7.76v35.29H131.02z"/>
		<path class="st2" d="M172.67,3.21v55.99h-10.88V3.21H172.67z"/>
		<path class="st2" d="M206.91,3.21l18.5,55.99h-11.3l-3.74-12.47h-18.5l-3.88,12.47h-10.95l18.71-55.99H206.91z M207.53,37.56
			l-6.24-20.55h-0.14l-6.45,20.55H207.53z"/>
	</g>
	<g class="st1">
		<path class="st2" d="M24.99,67.83c3.09,0,5.73,0.51,7.9,1.53c2.17,1.02,3.94,2.37,5.3,4.04c1.36,1.67,2.36,3.58,2.98,5.72
			c0.62,2.14,0.94,4.37,0.94,6.67c0,2.25-0.31,4.46-0.94,6.63c-0.62,2.17-1.62,4.09-2.98,5.76c-1.36,1.67-3.13,3.02-5.3,4.04
			c-2.17,1.02-4.81,1.53-7.9,1.53H13.56v20.08H2.68V67.83H24.99z M22.01,94.18c1.25,0,2.45-0.1,3.6-0.31
			c1.15-0.21,2.17-0.61,3.05-1.22c0.88-0.6,1.58-1.45,2.11-2.55c0.53-1.1,0.8-2.54,0.8-4.31c0-1.78-0.27-3.22-0.8-4.31
			c-0.53-1.1-1.24-1.95-2.11-2.55c-0.88-0.6-1.9-1.01-3.05-1.22c-1.16-0.21-2.36-0.31-3.6-0.31h-8.45v16.78H22.01z"/>
		<path class="st2" d="M75.58,67.83c2.22,0,4.22,0.41,5.99,1.22c1.78,0.81,3.3,1.92,4.57,3.33c1.27,1.41,2.24,3.05,2.91,4.9
			c0.67,1.86,1,3.86,1,6c0,3.29-0.61,6.14-1.84,8.55c-1.22,2.41-3.22,4.24-5.99,5.49v0.16c1.34,0.42,2.45,1.06,3.33,1.92
			c0.88,0.86,1.59,1.88,2.15,3.06c0.55,1.18,0.96,2.47,1.21,3.88c0.25,1.41,0.43,2.82,0.52,4.24c0.05,0.89,0.09,1.93,0.14,3.14
			c0.05,1.2,0.13,2.43,0.24,3.69c0.11,1.25,0.3,2.44,0.55,3.57c0.25,1.12,0.63,2.08,1.14,2.86H80.64c-0.6-1.78-0.97-3.89-1.11-6.35
			c-0.14-2.46-0.35-4.81-0.62-7.06c-0.37-2.93-1.16-5.07-2.36-6.43c-1.2-1.36-3.17-2.04-5.89-2.04H59.78v21.88H48.9V67.83H75.58z
			 M71.7,93.16c2.5,0,4.37-0.63,5.61-1.88c1.25-1.25,1.87-3.29,1.87-6.12c0-2.72-0.62-4.69-1.87-5.92
			c-1.25-1.23-3.12-1.84-5.61-1.84H59.78v15.76H71.7z"/>
		<path class="st2" d="M123.61,67.83l18.5,55.99h-11.3l-3.74-12.47h-18.5l-3.88,12.47H93.74l18.71-55.99H123.61z M124.23,102.18
			l-6.24-20.55h-0.14l-6.45,20.55H124.23z"/>
		<path class="st2" d="M178.15,82.77c-0.65-1.18-1.46-2.21-2.43-3.1c-0.97-0.89-2.07-1.58-3.29-2.08c-1.23-0.5-2.51-0.74-3.85-0.74
			c-2.45,0-4.53,0.54-6.24,1.61c-1.71,1.07-3.1,2.51-4.16,4.31s-1.84,3.86-2.32,6.16c-0.49,2.3-0.73,4.68-0.73,7.14
			c0,2.35,0.24,4.64,0.73,6.86c0.49,2.22,1.26,4.22,2.32,6c1.06,1.78,2.45,3.2,4.16,4.27c1.71,1.07,3.79,1.61,6.24,1.61
			c3.33,0,5.92-1.15,7.8-3.45c1.87-2.3,3.01-5.33,3.43-9.1h10.53c-0.28,3.5-0.99,6.67-2.15,9.49c-1.16,2.82-2.68,5.23-4.57,7.21
			c-1.89,1.99-4.11,3.5-6.65,4.55c-2.54,1.04-5.34,1.57-8.39,1.57c-3.79,0-7.2-0.75-10.22-2.24c-3.03-1.49-5.58-3.54-7.66-6.16
			c-2.08-2.61-3.67-5.69-4.78-9.21c-1.11-3.53-1.66-7.33-1.66-11.41c0-4.18,0.55-8.06,1.66-11.65c1.11-3.58,2.7-6.71,4.78-9.37
			c2.08-2.67,4.63-4.76,7.66-6.27c3.03-1.52,6.43-2.27,10.22-2.27c2.73,0,5.3,0.44,7.73,1.33c2.42,0.89,4.6,2.18,6.51,3.88
			c1.92,1.7,3.5,3.8,4.75,6.31c1.25,2.51,2.03,5.39,2.36,8.63h-10.53C179.21,85.24,178.79,83.95,178.15,82.77z"/>
		<path class="st2" d="M193.88,78.19V67.83h40.54v10.35h-14.83v45.64h-10.88V78.19H193.88z"/>
		<path class="st2" d="M250.98,67.83v55.99H240.1V67.83H250.98z"/>
		<path class="st2" d="M292.29,82.77c-0.65-1.18-1.46-2.21-2.43-3.1c-0.97-0.89-2.07-1.58-3.29-2.08c-1.23-0.5-2.51-0.74-3.85-0.74
			c-2.45,0-4.53,0.54-6.24,1.61c-1.71,1.07-3.1,2.51-4.16,4.31s-1.84,3.86-2.32,6.16c-0.49,2.3-0.73,4.68-0.73,7.14
			c0,2.35,0.24,4.64,0.73,6.86c0.49,2.22,1.26,4.22,2.32,6c1.06,1.78,2.45,3.2,4.16,4.27c1.71,1.07,3.79,1.61,6.24,1.61
			c3.33,0,5.92-1.15,7.8-3.45c1.87-2.3,3.01-5.33,3.43-9.1h10.53c-0.28,3.5-0.99,6.67-2.15,9.49c-1.16,2.82-2.68,5.23-4.57,7.21
			c-1.89,1.99-4.11,3.5-6.65,4.55c-2.54,1.04-5.34,1.57-8.39,1.57c-3.79,0-7.2-0.75-10.22-2.24c-3.03-1.49-5.58-3.54-7.66-6.16
			c-2.08-2.61-3.67-5.69-4.78-9.21c-1.11-3.53-1.66-7.33-1.66-11.41c0-4.18,0.55-8.06,1.66-11.65c1.11-3.58,2.7-6.71,4.78-9.37
			c2.08-2.67,4.63-4.76,7.66-6.27c3.03-1.52,6.43-2.27,10.22-2.27c2.73,0,5.3,0.44,7.73,1.33c2.42,0.89,4.6,2.18,6.51,3.88
			c1.92,1.7,3.5,3.8,4.75,6.31c1.25,2.51,2.03,5.39,2.36,8.63h-10.53C293.35,85.24,292.93,83.95,292.29,82.77z"/>
		<path class="st2" d="M348.9,67.83v10.35h-26.13v12h23.98v9.57h-23.98v13.72h26.68v10.35H311.9V67.83H348.9z"/>
	</g>
	<g class="st1">
		<path class="st2" d="M5.35,145.9c0.74-2.69,1.85-5.04,3.33-7.06c1.48-2.01,3.34-3.58,5.58-4.71c2.24-1.12,4.82-1.69,7.73-1.69
			c2.22,0,4.33,0.39,6.34,1.18c2.01,0.78,3.78,1.91,5.3,3.37c1.52,1.46,2.74,3.27,3.64,5.41c0.9,2.14,1.35,4.55,1.35,7.21
			c0,2.77-0.39,5.15-1.18,7.14c-0.79,1.99-1.83,3.75-3.12,5.29c-1.29,1.54-2.76,2.94-4.4,4.2c-1.64,1.25-3.29,2.5-4.96,3.73
			s-3.28,2.55-4.85,3.96c-1.57,1.41-2.96,3.06-4.16,4.94H38.9v9.57H3.28c0-3.19,0.4-5.96,1.21-8.31c0.81-2.35,1.91-4.46,3.29-6.31
			c1.39-1.85,3.01-3.57,4.89-5.14c1.87-1.57,3.85-3.16,5.93-4.78c1.06-0.84,2.19-1.69,3.4-2.55c1.2-0.86,2.3-1.82,3.29-2.86
			c0.99-1.04,1.82-2.22,2.49-3.53c0.67-1.31,1-2.8,1-4.47c0-2.67-0.68-4.74-2.04-6.23c-1.36-1.49-3.11-2.24-5.23-2.24
			c-1.43,0-2.65,0.38-3.64,1.14c-0.99,0.76-1.79,1.75-2.39,2.98c-0.6,1.23-1.03,2.59-1.28,4.08c-0.25,1.49-0.38,2.97-0.38,4.43H4.38
			C4.29,151.51,4.62,148.6,5.35,145.9z"/>
		<path class="st2" d="M43.23,147.31c0.95-3.63,2.23-6.55,3.85-8.74c1.62-2.2,3.5-3.76,5.65-4.71s4.42-1.41,6.83-1.41
			c2.45,0,4.75,0.47,6.9,1.41s4.04,2.51,5.68,4.71c1.64,2.2,2.93,5.11,3.88,8.74c0.95,3.63,1.42,8.12,1.42,13.45
			c0,5.49-0.47,10.08-1.42,13.76c-0.95,3.69-2.24,6.63-3.88,8.82c-1.64,2.2-3.53,3.76-5.68,4.71c-2.15,0.94-4.45,1.41-6.9,1.41
			c-2.4,0-4.68-0.47-6.83-1.41c-2.15-0.94-4.03-2.51-5.65-4.71c-1.62-2.2-2.9-5.14-3.85-8.82c-0.95-3.69-1.42-8.27-1.42-13.76
			C41.81,155.43,42.28,150.95,43.23,147.31z M51.79,166.45c0.09,2.22,0.38,4.37,0.87,6.43c0.49,2.07,1.26,3.83,2.32,5.29
			c1.06,1.46,2.59,2.2,4.57,2.2c2.03,0,3.59-0.73,4.68-2.2c1.08-1.46,1.87-3.23,2.36-5.29c0.48-2.06,0.77-4.21,0.87-6.43
			c0.09-2.22,0.14-4.12,0.14-5.69c0-0.94-0.01-2.08-0.03-3.41c-0.02-1.33-0.12-2.71-0.28-4.12c-0.16-1.41-0.39-2.81-0.69-4.2
			c-0.3-1.38-0.75-2.63-1.35-3.73c-0.6-1.1-1.36-1.99-2.29-2.67c-0.92-0.68-2.06-1.02-3.4-1.02c-1.34,0-2.46,0.34-3.36,1.02
			c-0.9,0.68-1.64,1.57-2.22,2.67c-0.58,1.1-1.03,2.34-1.35,3.73c-0.32,1.39-0.55,2.78-0.69,4.2c-0.14,1.41-0.22,2.78-0.24,4.12
			c-0.02,1.33-0.03,2.47-0.03,3.41C51.65,162.33,51.69,164.23,51.79,166.45z"/>
		<path class="st2" d="M82.42,145.9c0.74-2.69,1.85-5.04,3.33-7.06c1.48-2.01,3.34-3.58,5.58-4.71c2.24-1.12,4.82-1.69,7.73-1.69
			c2.22,0,4.33,0.39,6.34,1.18s3.78,1.91,5.3,3.37c1.53,1.46,2.74,3.27,3.64,5.41c0.9,2.14,1.35,4.55,1.35,7.21
			c0,2.77-0.39,5.15-1.18,7.14c-0.79,1.99-1.83,3.75-3.12,5.29c-1.29,1.54-2.76,2.94-4.4,4.2s-3.29,2.5-4.96,3.73
			c-1.66,1.23-3.28,2.55-4.85,3.96c-1.57,1.41-2.96,3.06-4.16,4.94h22.94v9.57H80.34c0-3.19,0.4-5.96,1.21-8.31
			c0.81-2.35,1.91-4.46,3.29-6.31c1.39-1.85,3.01-3.57,4.89-5.14c1.87-1.57,3.85-3.16,5.93-4.78c1.06-0.84,2.19-1.69,3.4-2.55
			c1.2-0.86,2.3-1.82,3.29-2.86c0.99-1.04,1.82-2.22,2.49-3.53c0.67-1.31,1.01-2.8,1.01-4.47c0-2.67-0.68-4.74-2.04-6.23
			c-1.36-1.49-3.11-2.24-5.23-2.24c-1.43,0-2.64,0.38-3.64,1.14c-0.99,0.76-1.79,1.75-2.39,2.98c-0.6,1.23-1.03,2.59-1.28,4.08
			s-0.38,2.97-0.38,4.43h-9.43C81.35,151.51,81.68,148.6,82.42,145.9z"/>
		<path class="st2" d="M120.29,147.31c0.95-3.63,2.23-6.55,3.85-8.74c1.62-2.2,3.5-3.76,5.65-4.71s4.42-1.41,6.83-1.41
			c2.45,0,4.75,0.47,6.9,1.41s4.04,2.51,5.68,4.71c1.64,2.2,2.93,5.11,3.88,8.74c0.95,3.63,1.42,8.12,1.42,13.45
			c0,5.49-0.47,10.08-1.42,13.76c-0.95,3.69-2.24,6.63-3.88,8.82c-1.64,2.2-3.53,3.76-5.68,4.71c-2.15,0.94-4.45,1.41-6.9,1.41
			c-2.4,0-4.68-0.47-6.83-1.41c-2.15-0.94-4.03-2.51-5.65-4.71c-1.62-2.2-2.9-5.14-3.85-8.82c-0.95-3.69-1.42-8.27-1.42-13.76
			C118.87,155.43,119.34,150.95,120.29,147.31z M128.85,166.45c0.09,2.22,0.38,4.37,0.87,6.43c0.49,2.07,1.26,3.83,2.32,5.29
			c1.06,1.46,2.59,2.2,4.57,2.2c2.03,0,3.59-0.73,4.68-2.2c1.08-1.46,1.87-3.23,2.36-5.29c0.49-2.06,0.77-4.21,0.87-6.43
			c0.09-2.22,0.14-4.12,0.14-5.69c0-0.94-0.01-2.08-0.04-3.41s-0.12-2.71-0.28-4.12c-0.16-1.41-0.39-2.81-0.69-4.2
			c-0.3-1.38-0.75-2.63-1.35-3.73c-0.6-1.1-1.36-1.99-2.29-2.67c-0.92-0.68-2.06-1.02-3.4-1.02c-1.34,0-2.46,0.34-3.36,1.02
			c-0.9,0.68-1.64,1.57-2.22,2.67c-0.58,1.1-1.03,2.34-1.35,3.73c-0.32,1.39-0.55,2.78-0.69,4.2c-0.14,1.41-0.22,2.78-0.24,4.12
			c-0.02,1.33-0.04,2.47-0.04,3.41C128.71,162.33,128.76,164.23,128.85,166.45z"/>
		<path class="st2" d="M180.48,162.25v9.57h-20.86v-9.57H180.48z"/>
		<path class="st2" d="M187.69,145.9c0.74-2.69,1.85-5.04,3.33-7.06c1.48-2.01,3.34-3.58,5.58-4.71c2.24-1.12,4.82-1.69,7.73-1.69
			c2.22,0,4.33,0.39,6.34,1.18s3.78,1.91,5.3,3.37c1.53,1.46,2.74,3.27,3.64,5.41c0.9,2.14,1.35,4.55,1.35,7.21
			c0,2.77-0.39,5.15-1.18,7.14c-0.79,1.99-1.83,3.75-3.12,5.29c-1.29,1.54-2.76,2.94-4.4,4.2c-1.64,1.25-3.29,2.5-4.96,3.73
			s-3.28,2.55-4.85,3.96c-1.57,1.41-2.96,3.06-4.16,4.94h22.94v9.57h-35.62c0-3.19,0.4-5.96,1.21-8.31
			c0.81-2.35,1.91-4.46,3.29-6.31c1.39-1.85,3.01-3.57,4.89-5.14c1.87-1.57,3.85-3.16,5.92-4.78c1.06-0.84,2.19-1.69,3.4-2.55
			c1.2-0.86,2.3-1.82,3.29-2.86c0.99-1.04,1.83-2.22,2.5-3.53c0.67-1.31,1-2.8,1-4.47c0-2.67-0.68-4.74-2.04-6.23
			c-1.36-1.49-3.11-2.24-5.23-2.24c-1.43,0-2.65,0.38-3.64,1.14c-0.99,0.76-1.79,1.75-2.39,2.98c-0.6,1.23-1.03,2.59-1.28,4.08
			s-0.38,2.97-0.38,4.43h-9.42C186.62,151.51,186.95,148.6,187.69,145.9z"/>
		<path class="st2" d="M240.01,188.45v-35.6h-12.2v-8.39c1.71,0.05,3.36-0.09,4.96-0.43c1.59-0.34,3.03-0.94,4.3-1.8
			c1.27-0.86,2.34-2,3.22-3.41c0.88-1.41,1.46-3.16,1.73-5.25h7.83v54.89H240.01z"/>
		<path class="st2" d="M276.25,176.37v12.08h-10.88v-12.08H276.25z"/>
	</g>
</g>
</svg>
